<?xml version="1.0" encoding="utf-8"?>
<!-- Generator: Adobe Illustrator 18.1.1, SVG Export Plug-In . SVG Version: 6.00 Build 0)  -->
<svg version="1.1" id="Слой_1" xmlns="http://www.w3.org/2000/svg" xmlns:xlink="http://www.w3.org/1999/xlink" x="0px" y="0px"
	 viewBox="0 0 595.3 841.9" enable-background="new 0 0 595.3 841.9" xml:space="preserve">
<g>
	<circle fill="#FFDA00" cx="256.1" cy="298.7" r="11.2"/>
	<g>
		<g>
			<path d="M257.8,275.3l-2.1-0.1l0.2-5.9c0,0-0.1,0-0.1,0c-1.1-0.2-1.8-0.4-2.6-0.6l-0.2,6.4l-2-0.1c-0.3,0-0.6,0-0.8,0
				c-2.1,0.3-3.8,2.2-3.8,4.3l-0.3,7.6l-0.2,0.2c-2.8,2.2-4.4,5.5-4.5,9.1c-0.2,3.1,1,6.3,3.3,8.7c2.3,2.5,5.4,3.9,8.5,3.9
				c6.7,0.4,12.6-5.4,12.7-11.8c0.1-3.5-1.3-7-3.9-9.4l-0.2-0.2l0.3-7.5C262.2,277.5,260.3,275.4,257.8,275.3z M263.2,296.9
				c-0.1,4.4-3.7,8.4-8.1,9.1c-0.6,0.1-1.2,0.1-1.8,0.1c-2.4,0-4.9-1.1-6.7-3.1c-1.8-1.9-2.7-4.4-2.6-6.8c0.1-4.5,3.6-8.4,8.2-9.1
				c0.6-0.1,1.2-0.1,1.8-0.1C259.3,287.2,263.4,291.7,263.2,296.9z M259.4,279.8l-0.2,5.8l-0.8-0.3c-1.4-0.6-2.8-0.9-4.3-0.9
				c-1.5-0.1-3,0.2-4.4,0.6l-0.8,0.3l0.2-5.8c0-0.9,0.9-1.7,1.8-1.7c1.8,0.1,5,0.2,6.8,0.3C258.7,278.1,259.4,278.9,259.4,279.8z"/>
		</g>
	</g>
</g>
<g>
	<circle fill="#FFDA00" cx="375.2" cy="271.4" r="9.5"/>
	<g>
		<g>
			<path d="M373.5,251.5l-1.7,0.2l-0.6-5c0,0-0.1,0-0.1,0c-0.9,0-1.6-0.1-2.2-0.1l0.7,5.4l-1.7,0.2c-0.2,0-0.5,0.1-0.7,0.1
				c-1.7,0.5-2.8,2.3-2.6,4.1l0.8,6.4l-0.2,0.2c-2,2.2-3,5.2-2.6,8.2c0.3,2.6,1.7,5.1,3.9,6.9c2.2,1.8,5,2.5,7.7,2.1
				c5.7-0.6,9.9-6.2,9.1-11.6c-0.4-3-2-5.6-4.5-7.3l-0.2-0.1l-0.8-6.3C377.5,252.8,375.6,251.3,373.5,251.5z M380.9,268.9
				c0.5,3.7-1.9,7.6-5.6,8.7c-0.5,0.2-1,0.3-1.5,0.3c-2,0.3-4.2-0.3-6-1.7c-1.7-1.3-2.8-3.3-3.1-5.4c-0.5-3.8,1.9-7.5,5.6-8.7
				c0.5-0.2,1-0.3,1.5-0.3C376.3,261.3,380.4,264.5,380.9,268.9z M375.5,255.1l0.6,4.9l-0.7-0.2c-1.2-0.3-2.5-0.4-3.7-0.2
				c-1.2,0.2-2.5,0.5-3.6,1.1l-0.7,0.3l-0.6-4.9c-0.1-0.8,0.5-1.6,1.3-1.7c1.5-0.2,4.2-0.5,5.7-0.7
				C374.6,253.7,375.4,254.3,375.5,255.1z"/>
		</g>
	</g>
</g>
<g>
	<path fill="#F200FF" d="M324.9,278.8c-0.4,2.5-5.8,11.1-7.9,14.2c-0.3,0.5-1,0.4-1.2-0.2c-1.1-3.6-3.9-13.4-3.6-15.9
		c0.4-3,3.6-5.1,7.1-4.6C322.9,272.9,325.4,275.8,324.9,278.8z"/>
	<g>
		<g>
			<path d="M319,292.6c-0.9-0.1-1.7-0.8-2-1.7c-1.7-4.8-3.6-11.1-3.2-13.6c0.6-4,4.3-6.8,8.3-6.2s6.8,4.3,6.2,8.3
				c-0.4,2.5-3.9,8-6.9,12.2C320.9,292.3,320,292.7,319,292.6z M321.8,273.1c-2.9-0.4-5.5,1.6-5.9,4.5c-0.2,1.6,0.9,6.3,3.1,12.7
				c0.1,0.2,0.2,0.3,0.3,0.3s0.3,0,0.4-0.2c3.9-5.5,6.3-9.7,6.5-11.3C326.7,276.2,324.7,273.5,321.8,273.1z"/>
		</g>
		<g>
			<path d="M321.3,276.7c-2.1-0.3-3.6-2.3-3.3-4.4l0.9-6.4l7.7,1.1l-0.9,6.4C325.4,275.5,323.4,277,321.3,276.7z M320.6,268.2
				l-0.6,4.3c-0.1,1,0.6,1.9,1.5,2.1c1,0.1,1.9-0.6,2.1-1.5l0.6-4.3L320.6,268.2z"/>
		</g>
		<g>
			<rect x="322.2" y="258.6" transform="matrix(0.9901 0.1406 -0.1406 0.9901 40.1968 -42.8304)" width="2.1" height="8.8"/>
		</g>
	</g>
</g>
<g>
	<path fill="#FFAA00" d="M215.8,280.5c-0.6,1.6-5.6,6.6-7.4,8.4c-0.3,0.3-0.7,0.1-0.8-0.3c-0.2-2.6-0.7-9.6-0.1-11.2
		c0.7-2,3.2-2.9,5.5-2S216.5,278.5,215.8,280.5z"/>
	<g>
		<g>
			<path d="M209.8,288.9c-0.6-0.2-1-0.8-1.1-1.4c-0.4-3.5-0.8-8-0.2-9.7c1-2.6,3.9-3.9,6.5-3c2.6,1,3.9,3.9,3,6.5
				c-0.6,1.6-3.8,4.8-6.4,7.2C211.1,289,210.4,289.1,209.8,288.9z M214.5,276.2c-1.9-0.7-4,0.3-4.7,2.1c-0.4,1-0.3,4.4,0.2,9
				c0,0.2,0.1,0.2,0.2,0.2c0.1,0,0.2,0,0.3-0.1c3.4-3.1,5.7-5.6,6.1-6.6C217.4,279,216.4,276.9,214.5,276.2z"/>
		</g>
		<g>
			<path d="M213.7,278.5c-1.4-0.5-2.1-2.1-1.6-3.5l1.6-4.2l5,1.9l-1.6,4.2C216.6,278.3,215.1,279,213.7,278.5z M214.5,272.7
				l-1.1,2.8c-0.2,0.6,0.1,1.4,0.7,1.6c0.6,0.2,1.4-0.1,1.6-0.7l1.1-2.8L214.5,272.7z"/>
		</g>
		<g>
			<rect x="216.3" y="266.6" transform="matrix(0.9368 0.3498 -0.3498 0.9368 108.0381 -58.8714)" width="1.4" height="6.1"/>
		</g>
	</g>
</g>
<path d="M231.8,334c0,8.3-6.7,15-14.9,15c-8.2,0-14.9-6.7-14.9-15c0-2,1.6-3.7,3.7-3.7c2.1,0,3.7,1.7,3.7,3.7c0,4.2,3.3,7.5,7.4,7.5
	c4.1,0,7.4-3.3,7.4-7.5c0-4.1-3.3-7.4-7.4-7.4c-8.2,0-14.9-6.6-14.9-14.9c0-8.2,6.7-14.9,14.9-14.9c8.2,0,14.9,6.7,14.9,14.9
	c0,2.1-1.6,3.7-3.7,3.7c-2,0-3.7-1.6-3.7-3.7c0-4.1-3.3-7.4-7.4-7.4c-4.1,0-7.4,3.3-7.4,7.4c0,4.1,3.3,7.4,7.4,7.4
	C225.1,319.1,231.8,325.8,231.8,334z"/>
<path d="M268.7,316.6l-11.2,29.8c-0.6,1.5-2,2.5-3.5,2.5c-0.1,0-0.1,0-0.1,0c-1.6,0-3-1-3.5-2.5l-11.2-29.8
	c-0.7-1.9,0.2-4.1,2.2-4.8c1.9-0.7,4,0.2,4.8,2.2l7.8,20.8l7.7-20.8c0.7-1.9,2.8-2.9,4.8-2.2C268.5,312.6,269.5,314.7,268.7,316.6z"
	/>
<path d="M278.4,303.1c-0.7-0.7-1.1-1.6-1.1-2.6c0-1,0.4-1.9,1.1-2.6c0.7-0.7,1.6-1.1,2.6-1.1s1.9,0.4,2.6,1.1c0.7,0.7,1,1.6,1,2.6
	c0,1-0.4,1.9-1,2.6c-0.7,0.7-1.6,1-2.6,1S279.1,303.8,278.4,303.1z M277.3,345.2v-30c0-2,1.6-3.6,3.7-3.6c2,0,3.6,1.6,3.6,3.6v30
	c0,2.1-1.6,3.7-3.6,3.7C278.9,348.9,277.3,347.3,277.3,345.2z"/>
<path d="M318.3,315.2c0,2-1.6,3.7-3.7,3.7h-5.3v26.3c0,2-1.6,3.7-3.7,3.7c-2,0-3.6-1.7-3.6-3.7V319h-5.4c-2,0-3.6-1.7-3.6-3.7
	c0-2,1.6-3.6,3.6-3.6h5.4v-14.9c0-2,1.6-3.6,3.6-3.6c2.1,0,3.7,1.6,3.7,3.6v14.9h5.3C316.6,311.6,318.3,313.2,318.3,315.2z"/>
<path d="M326.5,345.2v-48.4c0-2,1.6-3.6,3.7-3.6c2,0,3.6,1.6,3.6,3.6v48.4c0,2.1-1.6,3.7-3.6,3.7
	C328.1,348.9,326.5,347.3,326.5,345.2z"/>
<path d="M341.8,330.2c0-10.3,8.4-18.7,18.7-18.7c10.3,0,18.7,8.3,18.7,18.7c0,10.3-8.3,18.7-18.7,18.7
	C350.2,348.9,341.8,340.4,341.8,330.2z M349.2,330.2c0,6.2,5.1,11.3,11.3,11.3c6.2,0,11.3-5.1,11.3-11.3c0-6.2-5.1-11.3-11.3-11.3
	C354.3,318.9,349.2,323.9,349.2,330.2z"/>
<g>
	<path d="M304.4,265.3c26.1-4.4,51.6-11.8,76.1-22.2l-1-2.3c-24.3,10.3-49.7,17.8-75.6,22.1C304.2,263.7,304.3,264.5,304.4,265.3z"
		/>
	<path d="M288.6,265.1c-0.8,0.1-1.7,0.2-2.5,0.3c-28.9,3.2-58.1,2.7-86.9-1.6l-0.4,2.4c16.6,2.5,33.3,3.8,50.1,3.8
		c12.5,0,25-0.7,37.5-2.1c0.8-0.1,1.5-0.2,2.3-0.3C288.5,266.8,288.5,265.9,288.6,265.1z"/>
</g>
<g>
	<g>
		<path d="M296,266.5c1.6,0,1.6-2.5,0-2.5C294.4,264,294.4,266.5,296,266.5L296,266.5z"/>
	</g>
</g>
<path d="M234.9,416.4v17.3c0,2.1-1.7,3.7-3.7,3.7c-2,0-3.6-1.6-3.6-3.7v-17.3c0-5-4.1-9-9.1-9c-5,0-9,4-9,9v17.3
	c0,2.1-1.6,3.7-3.7,3.7c-2,0-3.6-1.6-3.6-3.7v-48.4c0-2,1.6-3.6,3.6-3.6c2.1,0,3.7,1.6,3.7,3.6v17.5c2.6-1.7,5.7-2.7,9-2.7
	C227.6,400,234.9,407.4,234.9,416.4z"/>
<path d="M242.8,418.7c0-10.3,8.4-18.7,18.7-18.7c10.3,0,18.7,8.3,18.7,18.7c0,10.3-8.3,18.7-18.7,18.7
	C251.2,437.4,242.8,429,242.8,418.7z M250.2,418.7c0,6.2,5.1,11.3,11.3,11.3c6.2,0,11.3-5.1,11.3-11.3c0-6.2-5.1-11.3-11.3-11.3
	C255.2,407.4,250.2,412.5,250.2,418.7z"/>
<path d="M318.2,403.7v18.7v0.1c-0.1,8.3-6.8,15-15.1,15c-8.3,0-15-6.7-15-15v-0.1v-18.7c0-2,1.6-3.6,3.6-3.6c2.1,0,3.7,1.6,3.7,3.6
	v18.6c0,4.2,3.4,7.7,7.7,7.7c4.3,0,7.7-3.5,7.7-7.7v-18.6c0-2,1.6-3.6,3.7-3.6C316.6,400.1,318.2,401.7,318.2,403.7z"/>
<path d="M348.8,426.2c0,6.2-5,11.2-11.2,11.2c-5.3,0-9.5-3.8-10.9-8.1c-0.7-1.9,0.9-3.9,2.8-4.4c2-0.4,3.4,1,4.4,2.9
	c1,1.9,1.9,2.2,3.7,2.2c2.1,0,3.8-1.7,3.8-3.9c0-2.1-1.7-3.8-3.8-3.8c-3,0-5.8-1.2-7.9-3.3c-2.2-2.1-3.3-4.9-3.3-7.9
	c0-6.2,5-11.2,11.2-11.2c5.2,0,10,3.6,10.7,7.7c0.4,2-0.8,4-2.8,4.4c-2,0.4-3.7-0.9-4.4-2.8c-0.4-1.2-1.7-2-3.5-2
	c-2.1,0-3.8,1.7-3.8,3.8c0,2.1,1.7,3.8,3.8,3.8c3,0,5.8,1.2,7.9,3.3C347.7,420.5,348.8,423.2,348.8,426.2z"/>
<path d="M393.4,418.7c0,2-1.6,3.6-3.7,3.6H364c1.6,4.5,5.7,7.7,10.7,7.7c1.7,0,4.8-0.1,8.3-2.5c1.7-1.1,4-0.1,4.9,1.7
	c0.9,1.9-0.1,3.8-1.8,4.9c-4.9,3.3-8.7,3.2-11.5,3.2c-10.3,0-18.7-8.4-18.7-18.7c0-10.3,8.3-18.7,18.7-18.7
	C383.7,400,393.4,406.6,393.4,418.7z M364,415h21.5c-1.6-5.2-6.3-7.6-10.8-7.6C369.8,407.4,365.6,410.6,364,415z"/>
<g>
	<rect x="214" y="417.7" fill="#FFDA00" width="4.2" height="4.2"/>
	<rect x="219.4" y="417.7" fill="#FFDA00" width="4.2" height="4.2"/>
	<rect x="214.1" y="422.9" fill="#FFDA00" width="4.2" height="4.2"/>
	<rect x="219.5" y="422.9" fill="#FFDA00" width="4.2" height="4.2"/>
</g>
<g>
	<g>
		<circle fill="#0031FF" cx="253.8" cy="387.7" r="9.5"/>
		<g>
			<g>
				<path d="M245.1,369.9l-1.6,0.8l-2.4-4.4c0,0-0.1,0-0.1,0c-0.9,0.3-1.5,0.5-2.1,0.7l2.6,4.8l-1.5,0.8c-0.2,0.1-0.4,0.2-0.6,0.4
					c-1.4,1.1-1.8,3.2-0.9,4.7l3.1,5.7l-0.1,0.2c-1.1,2.8-0.8,5.9,0.6,8.6c1.2,2.4,3.5,4.2,6.2,5c2.7,0.8,5.6,0.5,7.9-0.8
					c5.1-2.6,6.9-9.3,4.2-14.1c-1.4-2.6-3.9-4.5-6.9-5.2l-0.2-0.1l-3-5.6C249.2,369.6,246.9,368.9,245.1,369.9z M258.3,383.4
					c1.9,3.3,1,7.7-2,10.2c-0.4,0.3-0.8,0.6-1.3,0.8c-1.8,1-4.1,1.3-6.2,0.6c-2.1-0.6-3.9-2-4.8-3.9c-1.8-3.3-1-7.7,2.1-10.1
					c0.4-0.3,0.8-0.6,1.3-0.8C251.2,378,256.2,379.4,258.3,383.4z M248.2,372.5l2.3,4.3l-0.7,0.1c-1.3,0.2-2.5,0.6-3.6,1.2
					c-1.1,0.6-2.1,1.4-2.9,2.3l-0.5,0.5l-2.3-4.3c-0.4-0.7-0.1-1.7,0.6-2c1.4-0.7,3.7-2,5.1-2.7
					C246.9,371.5,247.8,371.8,248.2,372.5z"/>
			</g>
		</g>
	</g>
	<g>
		<path fill="#FFAA00" d="M202.7,370c-0.8,2.1-7.2,8.8-9.6,11.3c-0.4,0.4-1,0.1-1-0.4c-0.3-3.4-1.1-12.7-0.3-14.8
			c0.9-2.6,4.2-3.9,7.2-2.8C202,364.3,203.7,367.3,202.7,370z"/>
		<g>
			<g>
				<path d="M194.9,381.2c-0.8-0.3-1.4-1-1.5-1.9c-0.6-4.6-1.2-10.6-0.4-12.8c1.2-3.5,5.1-5.3,8.6-4c3.5,1.2,5.3,5.1,4,8.6
					c-0.8,2.2-5,6.4-8.4,9.6C196.6,381.3,195.7,381.4,194.9,381.2z M201,364.3c-2.5-0.9-5.2,0.4-6.1,2.9c-0.5,1.4-0.3,5.8,0.5,11.9
					c0,0.2,0.2,0.3,0.3,0.3s0.2,0.1,0.4-0.1c4.5-4.2,7.4-7.5,7.9-8.9C204.8,367.9,203.5,365.2,201,364.3z"/>
			</g>
			<g>
				<path d="M199.9,367.3c-1.8-0.7-2.8-2.7-2.1-4.6l2-5.5l6.7,2.4l-2,5.5C203.8,367,201.7,368,199.9,367.3z M200.9,359.7l-1.3,3.7
					c-0.3,0.9,0.1,1.8,1,2.1c0.9,0.3,1.8-0.1,2.1-1l1.3-3.7L200.9,359.7z"/>
			</g>
			<g>
				<rect x="203.2" y="351.5" transform="matrix(0.9412 0.3378 -0.3378 0.9412 132.1182 -48.0544)" width="1.9" height="8.1"/>
			</g>
		</g>
	</g>
	<g>
		<path fill="#FFAA00" d="M288.4,389.9c0.4,1.7-0.7,8.6-1.2,11.1c-0.1,0.4-0.5,0.5-0.8,0.2c-1.7-2-6.1-7.4-6.5-9.1
			c-0.5-2,0.9-4.2,3.3-4.8C285.5,386.7,287.9,387.8,288.4,389.9z"/>
		<g>
			<g>
				<path d="M288.4,400.2c-0.6,0.2-1.3,0-1.7-0.5c-2.4-2.6-5.3-6.1-5.7-7.8c-0.7-2.7,0.9-5.5,3.6-6.2s5.5,0.9,6.2,3.6
					c0.4,1.7-0.3,6.2-1.1,9.6C289.5,399.5,289,400,288.4,400.2z M284.9,387.1c-1.9,0.5-3.1,2.5-2.6,4.4c0.3,1.1,2.3,3.8,5.4,7.2
					c0.1,0.1,0.2,0.1,0.3,0.1c0.1,0,0.2-0.1,0.2-0.2c1-4.5,1.4-7.8,1.1-8.9C288.8,387.7,286.8,386.6,284.9,387.1z"/>
			</g>
			<g>
				<path d="M285.5,389.5c-1.4,0.4-2.9-0.5-3.3-1.9l-1.1-4.3l5.2-1.4l1.1,4.3C287.8,387.6,287,389.1,285.5,389.5z M282.8,384.3
					l0.8,2.9c0.2,0.7,0.9,1.1,1.5,0.9s1.1-0.9,0.9-1.5l-0.8-2.9L282.8,384.3z"/>
			</g>
			<g>
				<rect x="282.4" y="377.3" transform="matrix(0.9664 -0.257 0.257 0.9664 -88.2319 85.5284)" width="1.4" height="6.1"/>
			</g>
		</g>
	</g>
	<g>
		<path fill="#FFAA00" d="M351.7,392.4c-0.6,1.6-5.6,6.6-7.4,8.4c-0.3,0.3-0.7,0.1-0.8-0.3c-0.2-2.6-0.7-9.6-0.1-11.2
			c0.7-2,3.2-2.9,5.5-2C351.2,388.2,352.4,390.5,351.7,392.4z"/>
		<g>
			<g>
				<path d="M345.7,400.8c-0.6-0.2-1-0.8-1.1-1.4c-0.4-3.5-0.8-8-0.2-9.7c1-2.6,3.9-3.9,6.5-3c2.6,1,3.9,3.9,3,6.5
					c-0.6,1.6-3.8,4.8-6.4,7.2C347,400.9,346.3,401.1,345.7,400.8z M350.4,388.1c-1.9-0.7-4,0.3-4.7,2.1c-0.4,1-0.3,4.4,0.2,9
					c0,0.2,0.1,0.2,0.2,0.2s0.2,0,0.3-0.1c3.4-3.1,5.7-5.6,6.1-6.6C353.2,390.9,352.3,388.8,350.4,388.1z"/>
			</g>
			<g>
				<path d="M349.6,390.4c-1.4-0.5-2.1-2.1-1.6-3.5l1.6-4.2l5,1.9l-1.6,4.2C352.5,390.2,351,390.9,349.6,390.4z M350.4,384.7
					l-1.1,2.8c-0.2,0.6,0.1,1.4,0.7,1.6c0.6,0.2,1.4-0.1,1.6-0.7l1.1-2.8L350.4,384.7z"/>
			</g>
			<g>
				<rect x="352.2" y="378.5" transform="matrix(0.9368 0.3498 -0.3498 0.9368 155.7816 -99.3359)" width="1.4" height="6.1"/>
			</g>
		</g>
	</g>
	<g>
		<path d="M387.2,374.5c-4.5,0.4-9,1-13.7,1.5c-14.8,1.7-30.6,3.5-48.6,3.5c-0.1,0.8-0.3,1.6-0.4,2.5c18.3,0,34.3-1.9,49.3-3.6
			c4.6-0.5,9.2-1,13.6-1.5L387.2,374.5z"/>
		<path d="M308.5,379c-10-0.6-20.6-1.7-32-3.7c-45.1-8-81.2-31.1-91.2-37.9l-1.4,2c10.1,6.9,46.6,30.2,92.2,38.3
			c11.4,2,22.1,3.2,32.1,3.8C308.2,380.7,308.3,379.9,308.5,379z"/>
	</g>
	<g>
		<g>
			<path d="M315.9,379.1c-0.1,0-0.2,0-0.3,0c-1.6,0-1.6,2.5,0,2.5c0.1,0,0.2,0,0.3,0C317.5,381.6,317.5,379.1,315.9,379.1
				L315.9,379.1z"/>
		</g>
	</g>
</g>
</svg>
