<?xml version="1.0" encoding="utf-8"?>
<!-- Generator: Adobe Illustrator 18.1.1, SVG Export Plug-In . SVG Version: 6.00 Build 0)  -->
<svg version="1.1" id="Слой_1" xmlns="http://www.w3.org/2000/svg" xmlns:xlink="http://www.w3.org/1999/xlink" x="0px" y="0px"
	 viewBox="0 0 595.3 841.9" enable-background="new 0 0 595.3 841.9" xml:space="preserve">
<circle fill="#FFDA00" cx="133.2" cy="322" r="11.6"/>
<circle fill="#FFDA00" cx="348.6" cy="322.5" r="9.8"/>
<circle fill="#E25ABC" cx="257" cy="293.5" r="9.8"/>
<path fill="#FFAA00" d="M295.5,304c-0.8,2.2-7.5,9.2-10,11.7c-0.4,0.4-1,0.1-1-0.4c-0.3-3.5-1.1-13.2-0.3-15.4c1-2.7,4.3-4,7.5-2.9
	S296.5,301.3,295.5,304z"/>
<path fill="#FF7F00" d="M204.8,301.3c-0.4,2.6-6.1,11.5-8.2,14.8c-0.3,0.5-1,0.4-1.2-0.2c-1.1-3.7-4.1-13.9-3.7-16.5
	c0.4-3.2,3.8-5.3,7.4-4.8C202.6,295.2,205.2,298.2,204.8,301.3z"/>
<path fill="#FF6A52" d="M384.6,324.7c0.5,1.7-0.7,8.9-1.2,11.6c-0.1,0.4-0.6,0.5-0.8,0.2c-1.7-2.1-6.3-7.7-6.8-9.5
	c-0.6-2.1,1-4.4,3.4-5C381.6,321.4,384,322.6,384.6,324.7z"/>
<path fill="#0013FF" d="M450.4,327.4c-0.6,1.7-5.8,6.9-7.7,8.7c-0.3,0.3-0.8,0.1-0.8-0.3c-0.2-2.7-0.7-10-0.1-11.6
	c0.8-2.1,3.3-3,5.7-2.1S451.1,325.3,450.4,327.4z"/>
<path fill="#00B7FF" d="M91.3,303c-0.6,1.7-5.8,6.9-7.7,8.7c-0.3,0.3-0.8,0.1-0.8-0.3c-0.2-2.7-0.7-10-0.1-11.6
	c0.8-2.1,3.3-3,5.7-2.1S92.1,301,91.3,303z"/>
<g>
	<path fill="#FFFFFF" d="M105.5,362.6c0,8.6-7,15.5-15.5,15.5s-15.5-7-15.5-15.5c0-2.1,1.7-3.9,3.9-3.9c2.2,0,3.9,1.8,3.9,3.9
		c0,4.3,3.5,7.8,7.7,7.8c4.3,0,7.7-3.5,7.7-7.8c0-4.3-3.5-7.7-7.7-7.7c-8.5,0-15.5-6.9-15.5-15.5c0-8.5,7-15.5,15.5-15.5
		s15.5,7,15.5,15.5c0,2.2-1.7,3.9-3.9,3.9c-2.1,0-3.9-1.7-3.9-3.9c0-4.3-3.5-7.7-7.7-7.7c-4.3,0-7.7,3.5-7.7,7.7
		c0,4.3,3.5,7.7,7.7,7.7C98.5,347.1,105.5,354.1,105.5,362.6z"/>
	<path fill="#FFFFFF" d="M143.9,344.6l-11.6,30.9c-0.6,1.5-2.1,2.6-3.6,2.6c-0.1,0-0.1,0-0.1,0c-1.6,0-3.1-1.1-3.6-2.6l-11.6-30.9
		c-0.8-2,0.2-4.3,2.2-4.9c2-0.8,4.2,0.2,4.9,2.2l8.1,21.6l8-21.6c0.8-2,2.9-3,4.9-2.2C143.7,340.3,144.7,342.5,143.9,344.6z"/>
	<path fill="#FFFFFF" d="M154,330.5c-0.7-0.7-1.2-1.7-1.2-2.7s0.5-2,1.2-2.7c0.7-0.7,1.7-1.2,2.7-1.2c1,0,2,0.5,2.7,1.2
		c0.7,0.7,1.1,1.7,1.1,2.7s-0.4,2-1.1,2.7c-0.7,0.7-1.7,1.1-2.7,1.1C155.7,331.6,154.7,331.2,154,330.5z M152.8,374.3v-31.2
		c0-2.1,1.7-3.8,3.9-3.8c2.1,0,3.8,1.7,3.8,3.8v31.2c0,2.2-1.7,3.9-3.8,3.9C154.5,378.1,152.8,376.4,152.8,374.3z"/>
	<path fill="#FFFFFF" d="M195.4,343.1c0,2.1-1.7,3.9-3.9,3.9h-5.5v27.3c0,2.1-1.7,3.9-3.9,3.9c-2.1,0-3.8-1.8-3.8-3.9V347h-5.6
		c-2.1,0-3.8-1.8-3.8-3.9c0-2.1,1.7-3.8,3.8-3.8h5.6v-15.5c0-2.1,1.7-3.8,3.8-3.8c2.2,0,3.9,1.7,3.9,3.8v15.5h5.5
		C193.7,339.3,195.4,341,195.4,343.1z"/>
	<path fill="#FFFFFF" d="M204,374.3v-50.3c0-2.1,1.7-3.8,3.9-3.8c2.1,0,3.8,1.7,3.8,3.8v50.3c0,2.2-1.7,3.9-3.8,3.9
		C205.7,378.1,204,376.4,204,374.3z"/>
	<path fill="#FFFFFF" d="M219.9,358.6c0-10.7,8.7-19.4,19.4-19.4c10.7,0,19.4,8.7,19.4,19.4c0,10.7-8.7,19.4-19.4,19.4
		C228.7,378,219.9,369.3,219.9,358.6z M227.6,358.6c0,6.4,5.3,11.8,11.8,11.8s11.8-5.3,11.8-11.8c0-6.5-5.3-11.8-11.8-11.8
		S227.6,352.1,227.6,358.6z"/>
	<path fill="#FFFFFF" d="M329,356.2v17.9c0,2.2-1.8,3.9-3.9,3.9s-3.8-1.7-3.8-3.9v-17.9c0-5.2-4.3-9.4-9.4-9.4
		c-5.2,0-9.4,4.2-9.4,9.4v17.9c0,2.2-1.7,3.9-3.9,3.9c-2.1,0-3.8-1.7-3.8-3.9v-50.3c0-2.1,1.7-3.8,3.8-3.8c2.2,0,3.9,1.7,3.9,3.8
		V342c2.7-1.8,5.9-2.8,9.4-2.8C321.3,339.2,329,346.9,329,356.2z"/>
	<path fill="#FFFFFF" d="M337.2,358.6c0-10.7,8.7-19.4,19.4-19.4c10.7,0,19.4,8.7,19.4,19.4c0,10.7-8.7,19.4-19.4,19.4
		C345.9,378,337.2,369.3,337.2,358.6z M344.8,358.6c0,6.4,5.3,11.8,11.8,11.8s11.8-5.3,11.8-11.8c0-6.5-5.3-11.8-11.8-11.8
		S344.8,352.1,344.8,358.6z"/>
	<path fill="#FFFFFF" d="M415.6,343.1v19.4v0.1c-0.1,8.6-7,15.5-15.7,15.5c-8.6,0-15.5-7-15.6-15.5v-0.1v-19.4
		c0-2.1,1.7-3.8,3.8-3.8c2.2,0,3.9,1.7,3.9,3.8v19.3c0,4.4,3.6,8,8,8c4.5,0,8-3.6,8-8v-19.3c0-2.1,1.7-3.8,3.9-3.8
		C413.9,339.3,415.6,341,415.6,343.1z"/>
	<path fill="#FFFFFF" d="M447.4,366.4c0,6.4-5.2,11.7-11.6,11.7c-5.5,0-9.9-3.9-11.4-8.4c-0.7-2,0.9-4.1,2.9-4.6
		c2.1-0.4,3.6,1.1,4.6,3c1.1,2,2,2.3,3.9,2.3c2.2,0,3.9-1.8,3.9-4c0-2.2-1.8-3.9-3.9-3.9c-3.1,0-6-1.2-8.2-3.4
		c-2.2-2.2-3.4-5.1-3.4-8.2c0-6.4,5.2-11.6,11.6-11.6c5.4,0,10.4,3.7,11.1,8c0.4,2.1-0.9,4.2-2.9,4.6c-2.1,0.5-3.9-0.9-4.6-2.9
		c-0.5-1.2-1.8-2.1-3.6-2.1c-2.2,0-3.9,1.8-3.9,3.9c0,2.2,1.8,3.9,3.9,3.9c3.1,0,6,1.2,8.2,3.4C446.2,360.5,447.4,363.4,447.4,366.4
		z"/>
	<path fill="#FFFFFF" d="M493.8,358.6c0,2.1-1.7,3.8-3.9,3.8h-26.7c1.6,4.6,6,8,11.1,8c1.8,0,4.9-0.2,8.7-2.6
		c1.8-1.2,4.2-0.1,5.1,1.8c0.9,1.9-0.1,3.9-1.9,5.1c-5.1,3.4-9,3.3-11.9,3.3c-10.7,0-19.4-8.7-19.4-19.4c0-10.7,8.7-19.4,19.4-19.4
		C483.7,339.2,493.8,346,493.8,358.6z M463.2,354.8h22.3c-1.6-5.4-6.6-7.9-11.2-7.9C469.2,346.9,464.8,350.2,463.2,354.8z"/>
</g>
<g>
	<path fill="#FFFFFF" d="M174.7,287.1"/>
</g>
<g>
	<rect x="307.2" y="356.1" fill="#FFDA00" width="4.4" height="4.4"/>
	<rect x="312.8" y="356.1" fill="#FFDA00" width="4.4" height="4.4"/>
	<rect x="307.3" y="361.5" fill="#FFDA00" width="4.4" height="4.4"/>
	<rect x="312.9" y="361.5" fill="#FFDA00" width="4.4" height="4.4"/>
</g>
<g>
	<g>
		<g>
			<path fill="#FFFFFF" d="M135,297.7l-2.2-0.1l0.2-6.2c0,0-0.1,0-0.1,0c-1.1-0.2-1.9-0.4-2.7-0.6l-0.2,6.7l-2.1-0.1
				c-0.3,0-0.6,0-0.9,0c-2.2,0.3-3.9,2.3-3.9,4.4l-0.3,7.9l-0.2,0.2c-2.9,2.3-4.6,5.8-4.7,9.4c-0.2,3.3,1.1,6.6,3.4,9.1
				c2.4,2.6,5.6,4,8.9,4.1c7,0.4,13.1-5.6,13.2-12.3c0.1-3.7-1.3-7.2-4.1-9.8l-0.2-0.2l0.3-7.8C139.5,299.9,137.5,297.8,135,297.7z
				 M140.6,320.1c-0.1,4.6-3.8,8.8-8.5,9.5c-0.6,0.1-1.2,0.1-1.9,0.1c-2.5,0-5.1-1.2-6.9-3.2c-1.8-2-2.8-4.6-2.7-7.1
				c0.1-4.7,3.8-8.8,8.5-9.5c0.6-0.1,1.2-0.1,1.8-0.1C136.5,310.1,140.8,314.7,140.6,320.1z M136.6,302.4l-0.2,6l-0.8-0.4
				c-1.4-0.6-2.9-0.9-4.5-1c-1.5-0.1-3.1,0.2-4.6,0.7l-0.9,0.3l0.2-6.1c0-1,0.9-1.8,1.9-1.8c1.9,0.1,5.2,0.2,7.1,0.3
				C135.9,300.5,136.7,301.4,136.6,302.4z"/>
		</g>
	</g>
	<g>
		<g>
			<path fill="#FFFFFF" d="M339.5,304l-1.6,0.9l-2.5-4.6c0,0-0.1,0-0.1,0c-0.9,0.3-1.6,0.5-2.2,0.7l2.7,5l-1.6,0.9
				c-0.2,0.1-0.4,0.2-0.6,0.4c-1.5,1.2-1.9,3.3-1,4.9l3.2,5.9l-0.1,0.2c-1.1,2.9-0.9,6.2,0.6,8.9c1.3,2.5,3.6,4.3,6.4,5.2
				c2.8,0.9,5.8,0.5,8.2-0.8c5.3-2.7,7.2-9.7,4.4-14.6c-1.5-2.8-4.1-4.7-7.2-5.4l-0.2-0.1l-3.2-5.9
				C343.8,303.6,341.4,302.9,339.5,304z M353.2,318c1.9,3.4,1,8-2.1,10.6c-0.4,0.3-0.9,0.6-1.3,0.9c-1.9,1.1-4.2,1.3-6.4,0.6
				c-2.2-0.6-4-2.1-5-4c-1.9-3.5-1-8,2.1-10.5c0.4-0.3,0.8-0.6,1.3-0.9C345.9,312.4,351,313.9,353.2,318z M342.7,306.7l2.4,4.5
				l-0.8,0.1c-1.3,0.2-2.6,0.6-3.7,1.2c-1.2,0.6-2.2,1.4-3,2.4l-0.5,0.6l-2.4-4.5c-0.4-0.7-0.1-1.7,0.6-2.1c1.4-0.7,3.9-2.1,5.3-2.8
				C341.4,305.7,342.3,305.9,342.7,306.7z"/>
		</g>
	</g>
	<g>
		<g>
			<path fill="#FFFFFF" d="M255.3,272.9l-1.8,0.2l-0.6-5.2c0,0-0.1,0-0.1,0c-0.9,0-1.7-0.1-2.3-0.1l0.7,5.6l-1.8,0.2
				c-0.3,0-0.5,0.1-0.7,0.1c-1.8,0.6-3,2.4-2.7,4.2l0.8,6.6l-0.2,0.2c-2.1,2.3-3.1,5.4-2.7,8.5c0.3,2.8,1.8,5.4,4.1,7.2
				c2.3,1.8,5.2,2.6,8,2.2c5.9-0.6,10.3-6.4,9.4-12c-0.4-3.1-2.1-5.9-4.7-7.6l-0.2-0.1l-0.8-6.6
				C259.4,274.2,257.4,272.7,255.3,272.9z M263,291c0.6,3.9-2,7.9-5.8,9.1c-0.5,0.2-1,0.3-1.6,0.3c-2.1,0.3-4.4-0.3-6.2-1.7
				c-1.8-1.4-3-3.4-3.2-5.6c-0.5-3.9,2-7.8,5.8-9c0.5-0.2,1-0.3,1.5-0.3C258.2,283.1,262.4,286.4,263,291z M257.3,276.6l0.6,5.1
				l-0.7-0.2c-1.3-0.3-2.6-0.4-3.9-0.2c-1.3,0.2-2.6,0.5-3.7,1.2l-0.7,0.3l-0.6-5.1c-0.1-0.8,0.5-1.6,1.4-1.7
				c1.6-0.2,4.3-0.5,5.9-0.7C256.4,275.2,257.2,275.8,257.3,276.6z"/>
		</g>
	</g>
	<g>
		<g>
			<path fill="#FFFFFF" d="M287.4,315.7c-0.8-0.3-1.4-1-1.6-1.9c-0.6-4.8-1.2-11-0.4-13.3c1.3-3.6,5.3-5.5,8.9-4.2
				c3.6,1.3,5.5,5.3,4.2,8.9c-0.8,2.3-5.2,6.7-8.7,10C289.1,315.8,288.2,316,287.4,315.7z M293.7,298.1c-2.6-0.9-5.4,0.4-6.4,3
				c-0.5,1.4-0.3,6.1,0.5,12.4c0,0.2,0.2,0.3,0.3,0.3c0.1,0,0.3,0.1,0.4-0.1c4.6-4.3,7.7-7.8,8.2-9.2
				C297.6,301.9,296.3,299,293.7,298.1z"/>
		</g>
		<g>
			<path fill="#FFFFFF" d="M292.5,301.3c-1.9-0.7-2.9-2.8-2.2-4.7l2.1-5.8l7,2.5l-2.1,5.8C296.6,301,294.4,302,292.5,301.3z
				 M293.5,293.3l-1.4,3.9c-0.3,0.9,0.1,1.9,1,2.2c0.9,0.3,1.9-0.1,2.2-1l1.4-3.9L293.5,293.3z"/>
		</g>
		<g>
			
				<rect x="295.9" y="284.9" transform="matrix(0.9412 0.3378 -0.3378 0.9412 115.1047 -83.3156)" fill="#FFFFFF" width="2" height="8.4"/>
		</g>
	</g>
	<g>
		<g>
			<path fill="#FFFFFF" d="M198.6,315.6c-1-0.1-1.8-0.8-2.1-1.7c-1.7-5-3.7-11.6-3.4-14.2c0.6-4.2,4.5-7.1,8.6-6.5
				c4.2,0.6,7.1,4.5,6.5,8.6c-0.4,2.6-4.1,8.3-7.2,12.7C200.5,315.4,199.6,315.8,198.6,315.6z M201.5,295.4c-3-0.4-5.8,1.7-6.2,4.6
				c-0.2,1.7,1,6.6,3.3,13.2c0.1,0.2,0.3,0.3,0.4,0.3c0.1,0,0.3,0,0.4-0.2c4-5.7,6.6-10.1,6.8-11.7
				C206.6,298.6,204.5,295.8,201.5,295.4z"/>
		</g>
		<g>
			<path fill="#FFFFFF" d="M201,299c-2.2-0.3-3.8-2.4-3.5-4.6l0.9-6.6l8,1.1l-0.9,6.6C205.3,297.8,203.2,299.4,201,299z
				 M200.3,290.3l-0.6,4.5c-0.1,1,0.6,2,1.6,2.1c1,0.1,2-0.6,2.1-1.6l0.6-4.5L200.3,290.3z"/>
		</g>
		<g>
			
				<rect x="201.9" y="280.3" transform="matrix(0.9901 0.1406 -0.1406 0.9901 42.074 -25.7092)" fill="#FFFFFF" width="2.2" height="9.2"/>
		</g>
	</g>
	<g>
		<g>
			<path fill="#FFFFFF" d="M384.5,335.5c-0.7,0.2-1.3,0-1.8-0.5c-2.5-2.7-5.5-6.3-5.9-8.1c-0.7-2.8,0.9-5.7,3.7-6.4
				c2.8-0.7,5.7,0.9,6.4,3.7c0.5,1.8-0.4,6.4-1.1,10C385.7,334.8,385.2,335.3,384.5,335.5z M380.9,321.8c-2,0.5-3.2,2.6-2.7,4.6
				c0.3,1.1,2.4,3.9,5.6,7.5c0.1,0.1,0.2,0.1,0.3,0.1c0.1,0,0.2-0.1,0.2-0.2c1-4.7,1.5-8.2,1.2-9.3
				C385,322.5,382.9,321.3,380.9,321.8z"/>
		</g>
		<g>
			<path fill="#FFFFFF" d="M381.6,324.3c-1.5,0.4-3-0.5-3.4-2l-1.2-4.5l5.4-1.4l1.2,4.5C384,322.4,383.1,323.9,381.6,324.3z
				 M378.8,318.9l0.8,3c0.2,0.7,0.9,1.1,1.6,0.9s1.1-0.9,0.9-1.6l-0.8-3L378.8,318.9z"/>
		</g>
		<g>
			
				<rect x="378.3" y="311.6" transform="matrix(0.9664 -0.257 0.257 0.9664 -68.1698 107.9866)" fill="#FFFFFF" width="1.5" height="6.3"/>
		</g>
	</g>
	<g>
		<g>
			<path fill="#FFFFFF" d="M444.1,336.1c-0.6-0.2-1.1-0.8-1.2-1.5c-0.4-3.6-0.8-8.3-0.2-10c1-2.7,4.1-4.1,6.8-3.1
				c2.7,1,4.1,4.1,3.1,6.8c-0.6,1.7-4,5-6.7,7.5C445.5,336.2,444.8,336.4,444.1,336.1z M449.1,322.9c-1.9-0.7-4.1,0.3-4.8,2.2
				c-0.4,1.1-0.3,4.6,0.2,9.3c0,0.2,0.1,0.2,0.2,0.2s0.2,0,0.3-0.1c3.5-3.2,5.9-5.8,6.3-6.9C452,325.8,451,323.6,449.1,322.9z"/>
		</g>
		<g>
			<path fill="#FFFFFF" d="M448.2,325.3c-1.4-0.5-2.2-2.2-1.6-3.6l1.6-4.3l5.2,2l-1.6,4.3C451.2,325.1,449.6,325.8,448.2,325.3z
				 M449,319.3l-1.1,2.9c-0.3,0.7,0.1,1.4,0.8,1.7c0.7,0.3,1.4-0.1,1.7-0.8l1.1-2.9L449,319.3z"/>
		</g>
		<g>
			
				<rect x="450.9" y="312.9" transform="matrix(0.9368 0.3498 -0.3498 0.9368 139.1156 -138.0135)" fill="#FFFFFF" width="1.5" height="6.3"/>
		</g>
	</g>
	<g>
		<g>
			<path fill="#FFFFFF" d="M85,311.8c-0.6-0.2-1.1-0.8-1.2-1.5c-0.4-3.6-0.8-8.3-0.2-10c1-2.7,4.1-4.1,6.8-3.1
				c2.7,1,4.1,4.1,3.1,6.8c-0.6,1.7-4,5-6.7,7.5C86.4,311.9,85.7,312,85,311.8z M90,298.6c-1.9-0.7-4.1,0.3-4.8,2.2
				c-0.4,1.1-0.3,4.6,0.2,9.3c0,0.2,0.1,0.2,0.2,0.2c0.1,0,0.2,0,0.3-0.1c3.5-3.2,5.9-5.8,6.3-6.9C92.9,301.5,91.9,299.3,90,298.6z"
				/>
		</g>
		<g>
			<path fill="#FFFFFF" d="M89.1,301c-1.4-0.5-2.2-2.2-1.6-3.6L89,293l5.2,2l-1.6,4.3C92.1,300.8,90.5,301.5,89.1,301z M89.9,295
				l-1.1,2.9c-0.3,0.7,0.1,1.4,0.8,1.7c0.7,0.3,1.4-0.1,1.7-0.8l1.1-2.9L89.9,295z"/>
		</g>
		<g>
			
				<rect x="91.8" y="288.6" transform="matrix(0.9368 0.3498 -0.3498 0.9368 107.9074 -13.9311)" fill="#FFFFFF" width="1.5" height="6.3"/>
		</g>
	</g>
	<g>
		<path fill="#FFFFFF" d="M183.4,287.3c27.2-4.6,53.7-12.3,79.1-23.1l-1-2.4c-25.3,10.8-51.7,18.5-78.7,23
			C183.2,285.6,183.3,286.4,183.4,287.3z"/>
		<path fill="#FFFFFF" d="M166.9,287c-0.9,0.1-1.8,0.2-2.6,0.3c-30,3.4-60.4,2.8-90.4-1.7l-0.4,2.5c17.3,2.6,34.7,3.9,52.1,3.9
			c13,0,26-0.7,39-2.2c0.8-0.1,1.6-0.2,2.4-0.3C166.9,288.8,166.9,287.9,166.9,287z"/>
	</g>
	<g>
		<path fill="#FFFFFF" d="M487.3,308.7c-4.7,0.5-9.4,1-14.2,1.5c-15.4,1.7-31.8,3.6-50.6,3.7c-0.1,0.9-0.3,1.7-0.4,2.6
			c19,0,35.7-1.9,51.3-3.7c4.8-0.5,9.5-1.1,14.2-1.5L487.3,308.7z"/>
		<path fill="#FFFFFF" d="M405.4,313.5c-10.4-0.6-21.4-1.8-33.3-3.9c-46.9-8.3-84.4-32.3-94.8-39.4l-1.5,2.1
			c10.5,7.2,48.4,31.4,95.8,39.9c11.9,2.1,23,3.3,33.3,3.9C405.2,315.2,405.3,314.3,405.4,313.5z"/>
	</g>
</g>
<g>
	<path fill="#FFFFFF" d="M413.2,314.8c-0.1,0-0.2,0-0.4,0"/>
	<g>
		<path fill="#FFFFFF" d="M413.2,313.5c-0.1,0-0.2,0-0.4,0c-1.6,0-1.6,2.5,0,2.5c0.1,0,0.2,0,0.4,0
			C414.8,316,414.8,313.5,413.2,313.5L413.2,313.5z"/>
	</g>
</g>
<g>
	<path fill="#FFFFFF" d="M174.7,287.1c-0.1,0-0.2,0-0.4,0"/>
	<g>
		<path fill="#FFFFFF" d="M174.7,285.9c-0.1,0-0.2,0-0.4,0c-1.6,0-1.6,2.5,0,2.5c0.1,0,0.2,0,0.4,0
			C176.3,288.4,176.3,285.9,174.7,285.9L174.7,285.9z"/>
	</g>
</g>
</svg>
