<?xml version="1.0" encoding="utf-8"?>
<!-- Generator: Adobe Illustrator 18.1.1, SVG Export Plug-In . SVG Version: 6.00 Build 0)  -->
<svg version="1.1" id="Слой_1" xmlns="http://www.w3.org/2000/svg" xmlns:xlink="http://www.w3.org/1999/xlink" x="0px" y="0px"
	 viewBox="0 0 595.3 841.9" enable-background="new 0 0 595.3 841.9" xml:space="preserve">
<path fill="#FFDA00" d="M263.4,441.7c3.8,5.2,2.5,12.3-2.9,15.9c-5.4,3.6-12.8,2.4-16.6-2.8s-2.5-12.3,2.9-15.9
	C252.2,435.3,259.6,436.5,263.4,441.7z"/>
<path fill="#FFAA00" d="M189.2,426.8c-1,2.6-9.1,10.6-12.2,13.6c-0.4,0.4-1.2,0.2-1.3-0.4c-0.4-4.1-1.3-15.3-0.4-17.9
	c1.2-3.2,5.2-4.7,9.1-3.4C188.3,420,190.4,423.6,189.2,426.8z"/>
<path fill="#FF6A52" d="M297.2,456.4c0.6,2-0.9,10.4-1.5,13.4c-0.1,0.5-0.7,0.6-1,0.3c-2.1-2.4-7.7-9-8.2-11
	c-0.7-2.5,1.2-5.1,4.1-5.8S296.5,453.9,297.2,456.4z"/>
<path fill="#0013FF" d="M377,459.5c-0.8,1.9-7,8-9.3,10.1c-0.3,0.3-0.9,0.1-1-0.3c-0.3-3.1-0.9-11.6-0.1-13.5c0.9-2.4,4-3.5,6.9-2.5
	C376.3,454.3,377.9,457.1,377,459.5z"/>
<path fill="#FFFFFF" d="M229.8,490.2V511c0,2.5-2.2,4.5-4.7,4.5c-2.5,0-4.6-2-4.6-4.5v-20.8c0-6-5.2-10.9-11.4-10.9
	c-6.3,0-11.3,4.8-11.3,10.9V511c0,2.5-2.1,4.5-4.7,4.5c-2.5,0-4.6-2-4.6-4.5v-58.4c0-2.4,2.1-4.4,4.6-4.4c2.6,0,4.7,2,4.7,4.4v21.1
	c3.3-2.1,7.1-3.2,11.3-3.2C220.5,470.4,229.8,479.3,229.8,490.2z"/>
<path fill="#FFFFFF" d="M239.7,492.9c0-12.5,10.6-22.5,23.5-22.5c13,0,23.5,10.1,23.5,22.5c0,12.4-10.5,22.5-23.5,22.5
	C250.3,515.5,239.7,505.3,239.7,492.9z M249,492.9c0,7.4,6.4,13.6,14.3,13.6c7.9,0,14.2-6.2,14.2-13.6c0-7.5-6.4-13.6-14.2-13.6
	C255.4,479.3,249,485.4,249,492.9z"/>
<path fill="#FFFFFF" d="M334.8,474.9v22.5v0.1c-0.1,10-8.5,18-19,18c-10.4,0-18.8-8.1-18.9-18v-0.1v-22.5c0-2.4,2.1-4.4,4.6-4.4
	c2.6,0,4.7,2,4.7,4.4v22.4c0,5.1,4.3,9.3,9.7,9.3c5.4,0,9.8-4.2,9.8-9.3v-22.4c0-2.4,2.1-4.4,4.7-4.4
	C332.7,470.5,334.8,472.5,334.8,474.9z"/>
<path fill="#FFFFFF" d="M373.3,502c0,7.4-6.3,13.6-14.1,13.6c-6.7,0-12-4.6-13.8-9.8c-0.8-2.3,1.1-4.8,3.6-5.3
	c2.5-0.4,4.3,1.3,5.5,3.5c1.3,2.3,2.4,2.7,4.7,2.7c2.6,0,4.8-2.1,4.8-4.7c0-2.5-2.2-4.6-4.8-4.6c-3.7,0-7.3-1.4-9.9-3.9
	c-2.7-2.5-4.1-5.9-4.1-9.5c0-7.4,6.3-13.5,14.1-13.5c6.6,0,12.6,4.3,13.5,9.3c0.5,2.4-1,4.8-3.6,5.3c-2.5,0.5-4.7-1.1-5.5-3.3
	c-0.6-1.4-2.2-2.4-4.4-2.4c-2.6,0-4.8,2.1-4.8,4.6c0,2.5,2.2,4.6,4.8,4.6c3.8,0,7.3,1.4,9.9,3.9C371.9,495.1,373.3,498.4,373.3,502z
	"/>
<path fill="#FFFFFF" d="M429.5,492.9c0,2.4-2.1,4.4-4.7,4.4h-32.3c2,5.4,7.2,9.2,13.5,9.2c2.2,0,6-0.2,10.5-3
	c2.2-1.3,5.1-0.1,6.2,2.1c1.1,2.2-0.1,4.6-2.3,5.9c-6.2,3.9-11,3.9-14.4,3.9c-13,0-23.5-10.1-23.5-22.5c0-12.5,10.5-22.5,23.5-22.5
	C417.4,470.4,429.5,478.3,429.5,492.9z M392.5,488.5h27.1c-2-6.3-8-9.2-13.6-9.2C399.7,479.3,394.5,483.2,392.5,488.5z"/>
<g>
	<rect x="203.4" y="490" fill="#FFDA00" width="5.3" height="5.1"/>
	<rect x="210.2" y="490" fill="#FFDA00" width="5.3" height="5.1"/>
	<rect x="203.5" y="496.3" fill="#FFDA00" width="5.3" height="5.1"/>
	<rect x="210.3" y="496.3" fill="#FFDA00" width="5.3" height="5.1"/>
</g>
<g>
	<g>
		<path fill="#FFFFFF" d="M242.6,426.7l-2,1l-3-5.3c0,0-0.1,0-0.1,0c-1.1,0.3-1.9,0.6-2.7,0.8l3.3,5.8l-1.9,1
			c-0.3,0.1-0.5,0.3-0.8,0.5c-1.8,1.4-2.3,3.9-1.2,5.7l3.8,6.8l-0.1,0.3c-1.3,3.4-1.1,7.2,0.7,10.3c1.5,2.9,4.4,5,7.8,6
			c3.4,1,7.1,0.6,10-1c6.4-3.1,8.7-11.3,5.4-17c-1.8-3.2-5-5.5-8.7-6.3l-0.3-0.1l-3.8-6.8C247.7,426.4,244.8,425.6,242.6,426.7z
			 M259.2,443c2.3,3.9,1.2,9.3-2.6,12.3c-0.5,0.4-1,0.7-1.6,1c-2.3,1.2-5.1,1.5-7.8,0.7c-2.7-0.8-4.9-2.5-6-4.7
			c-2.3-4-1.2-9.3,2.6-12.2c0.5-0.4,1-0.7,1.6-1C250.3,436.5,256.5,438.2,259.2,443z M246.4,429.9l3,5.2l-0.9,0.1
			c-1.6,0.2-3.1,0.7-4.5,1.4c-1.4,0.7-2.7,1.7-3.7,2.8l-0.6,0.7l-3-5.2c-0.5-0.8-0.1-2,0.8-2.4c1.7-0.9,4.7-2.4,6.4-3.3
			C244.8,428.7,246,429,246.4,429.9z"/>
	</g>
</g>
<g>
	<g>
		<path fill="#FFFFFF" d="M179.4,440.3c-1-0.4-1.7-1.2-1.9-2.2c-0.8-5.6-1.5-12.8-0.5-15.4c1.6-4.2,6.4-6.4,10.8-4.9
			s6.7,6.1,5.1,10.3c-1,2.6-6.3,7.8-10.6,11.6C181.5,440.4,180.4,440.7,179.4,440.3z M187,420c-3.1-1.1-6.6,0.5-7.7,3.5
			c-0.6,1.7-0.4,7,0.6,14.3c0,0.2,0.2,0.3,0.3,0.4c0.1,0,0.3,0.1,0.5-0.1c5.6-5,9.4-9,10-10.7C191.8,424.4,190.1,421,187,420z"/>
	</g>
	<g>
		<path fill="#FFFFFF" d="M185.6,423.6c-2.3-0.8-3.5-3.3-2.7-5.5l2.5-6.7l8.4,2.9l-2.5,6.7C190.5,423.3,187.9,424.4,185.6,423.6z
			 M186.8,414.4l-1.7,4.5c-0.4,1,0.2,2.2,1.3,2.6c1.1,0.4,2.3-0.2,2.7-1.2l1.7-4.5L186.8,414.4z"/>
	</g>
	<g>
		<polygon fill="#FFFFFF" points="190.4,414.4 188.1,413.6 191.5,404.5 193.8,405.2 		"/>
	</g>
</g>
<g>
	<g>
		<path fill="#FFFFFF" d="M297.1,463.3c-0.8,0.2-1.6,0-2.2-0.6c-3-3.2-6.6-7.3-7.2-9.4c-0.9-3.3,1.1-6.6,4.5-7.5
			c3.4-0.9,6.9,1.1,7.8,4.3c0.6,2-0.4,7.4-1.4,11.6C298.5,462.5,297.9,463.1,297.1,463.3z M292.8,447.5c-2.4,0.6-3.9,3-3.2,5.3
			c0.4,1.3,2.9,4.5,6.8,8.7c0.1,0.1,0.3,0.1,0.4,0.1c0.1,0,0.2-0.1,0.3-0.3c1.2-5.4,1.8-9.5,1.4-10.8
			C297.7,448.2,295.2,446.9,292.8,447.5z"/>
	</g>
	<g>
		<path fill="#FFFFFF" d="M293.6,450.3c-1.8,0.5-3.7-0.6-4.2-2.3l-1.4-5.2l6.6-1.7l1.4,5.2C296.4,448.1,295.4,449.9,293.6,450.3z
			 M290.2,444.1l1,3.5c0.2,0.8,1.1,1.3,1.9,1.1s1.3-1,1.1-1.9l-1-3.5L290.2,444.1z"/>
	</g>
	<g>
		<polygon fill="#FFFFFF" points="292.3,442.6 290.6,443.1 288.6,436 290.4,435.5 		"/>
	</g>
</g>
<g>
	<g>
		<path fill="#FFFFFF" d="M369.4,464c-0.8-0.3-1.3-0.9-1.4-1.7c-0.5-4.2-1-9.7-0.2-11.6c1.2-3.2,4.9-4.8,8.2-3.6s5,4.7,3.7,7.9
			c-0.8,2-4.8,5.8-8.1,8.7C371,464.2,370.1,464.3,369.4,464z M375.4,448.7c-2.4-0.8-5,0.3-5.9,2.6c-0.5,1.3-0.4,5.3,0.3,10.8
			c0,0.2,0.2,0.3,0.2,0.3s0.2,0.1,0.4-0.1c4.3-3.8,7.2-6.7,7.6-8C378.9,452.1,377.7,449.6,375.4,448.7z"/>
	</g>
	<g>
		<path fill="#FFFFFF" d="M374.3,451.5c-1.8-0.6-2.6-2.5-2-4.2l2-5l6.4,2.3l-2,5C378,451.3,376,452.1,374.3,451.5z M375.3,444.5
			l-1.3,3.4c-0.3,0.8,0.1,1.7,0.9,2c0.8,0.3,1.7-0.1,2-0.9l1.3-3.4L375.3,444.5z"/>
	</g>
	<g>
		<polygon fill="#FFFFFF" points="378,444.6 376.3,443.9 378.9,437.1 380.6,437.7 		"/>
	</g>
</g>
<g>
	<path fill="#FFFFFF" d="M421.7,432.2c-5.6,0.5-11.4,1.2-17.2,1.8c-18.6,2-38.6,4.2-61.3,4.3c-0.2,1-0.3,2-0.5,3
		c23-0.1,43.3-2.2,62.1-4.3c5.8-0.6,11.6-1.3,17.2-1.8L421.7,432.2z"/>
	<path fill="#FFFFFF" d="M322.5,437.8c-12.6-0.7-26-2.1-40.4-4.5c-56.9-9.7-102.4-37.5-114.9-45.8l-1.8,2.5
		c12.7,8.4,58.7,36.5,116.2,46.2c14.4,2.4,27.8,3.9,40.4,4.6C322.2,439.7,322.3,438.8,322.5,437.8z"/>
</g>
<g>
	<path fill="#FFFFFF" d="M331.9,439.3c-0.1,0-0.3,0-0.4,0"/>
	<g>
		<path fill="#FFFFFF" d="M331.9,438.1c-0.1,0-0.3,0-0.4,0c-1.6,0-1.6,2.5,0,2.5c0.1,0,0.3,0,0.4,0
			C333.5,440.6,333.5,438.1,331.9,438.1L331.9,438.1z"/>
	</g>
</g>
<path fill="#FFDA00" d="M270.5,336.8c0.6,7.4-5.2,13.9-12.9,14.5c-7.8,0.6-14.6-4.9-15.2-12.4s5.2-13.9,12.9-14.5
	C263.1,323.9,269.9,329.4,270.5,336.8z"/>
<path fill="#E25ABC" d="M418.2,302.2c1.6,6.1-2.4,12.3-8.8,13.8c-6.4,1.5-12.9-2.3-14.4-8.4s2.4-12.3,8.8-13.8
	S416.6,296,418.2,302.2z"/>
<path fill="#FF7F00" d="M343.2,313.9c-0.4,3-7.3,13.4-9.9,17.2c-0.4,0.6-1.3,0.4-1.5-0.2c-1.4-4.3-5-16.2-4.5-19.1
	c0.5-3.7,4.5-6.2,8.9-5.6C340.6,306.8,343.8,310.2,343.2,313.9z"/>
<path fill="#00B7FF" d="M205.7,315.9c-0.8,1.9-7,8-9.3,10.1c-0.3,0.3-0.9,0.1-1-0.3c-0.3-3.1-0.9-11.6-0.1-13.5
	c0.9-2.4,4-3.5,6.9-2.5C205,310.7,206.6,313.5,205.7,315.9z"/>
<path fill="#FFFFFF" d="M225.8,382.2c0,10-8.4,18-18.8,18s-18.8-8.1-18.8-18c0-2.4,2.1-4.5,4.7-4.5c2.6,0,4.7,2.1,4.7,4.5
	c0,5,4.2,9.1,9.4,9.1c5.2,0,9.4-4,9.4-9.1c0-4.9-4.2-9-9.4-9c-10.3,0-18.8-8-18.8-17.9c0-9.9,8.4-17.9,18.8-17.9s18.8,8.1,18.8,17.9
	c0,2.5-2.1,4.5-4.7,4.5c-2.5,0-4.7-2-4.7-4.5c0-4.9-4.2-9-9.4-9c-5.2,0-9.4,4-9.4,9c0,4.9,4.2,9,9.4,9
	C217.4,364.2,225.8,372.3,225.8,382.2z"/>
<path fill="#FFFFFF" d="M272.4,361.3l-14.1,35.9c-0.7,1.8-2.5,3-4.4,3c-0.1,0-0.1,0-0.1,0c-2,0-3.7-1.3-4.4-3l-14.1-35.9
	c-0.9-2.3,0.3-4.9,2.7-5.7c2.4-0.9,5.1,0.3,6,2.6l9.8,25l9.8-25c0.9-2.3,3.6-3.5,6-2.6C272.1,356.3,273.3,358.9,272.4,361.3z"/>
<path fill="#FFFFFF" d="M284.6,344.9c-0.8-0.8-1.4-2-1.4-3.1c0-1.2,0.6-2.3,1.4-3.1c0.8-0.8,2.1-1.3,3.3-1.3c1.2,0,2.4,0.5,3.3,1.3
	c0.8,0.8,1.3,2,1.3,3.1c0,1.2-0.5,2.3-1.3,3.1c-0.8,0.8-2.1,1.3-3.3,1.3C286.6,346.2,285.4,345.7,284.6,344.9z M283.2,395.7v-36.2
	c0-2.4,2.1-4.4,4.7-4.4c2.5,0,4.6,2,4.6,4.4v36.2c0,2.5-2.1,4.5-4.6,4.5C285.2,400.2,283.2,398.2,283.2,395.7z"/>
<path fill="#FFFFFF" d="M334.8,359.6c0,2.4-2.1,4.5-4.7,4.5h-6.7v31.7c0,2.4-2.1,4.5-4.7,4.5c-2.5,0-4.6-2.1-4.6-4.5v-31.7h-6.8
	c-2.5,0-4.6-2.1-4.6-4.5c0-2.4,2.1-4.4,4.6-4.4h6.8v-17.9c0-2.4,2.1-4.4,4.6-4.4c2.6,0,4.7,2,4.7,4.4v17.9h6.7
	C332.7,355.2,334.8,357.1,334.8,359.6z"/>
<path fill="#FFFFFF" d="M345.2,395.7v-58.4c0-2.4,2.1-4.4,4.7-4.4c2.5,0,4.6,2,4.6,4.4v58.4c0,2.5-2.1,4.5-4.6,4.5
	C347.3,400.2,345.2,398.2,345.2,395.7z"/>
<path fill="#FFFFFF" d="M364.5,377.6c0-12.5,10.6-22.5,23.5-22.5c13,0,23.5,10.1,23.5,22.5c0,12.4-10.5,22.5-23.5,22.5
	C375.1,400.1,364.5,390,364.5,377.6z M373.8,377.6c0,7.4,6.4,13.6,14.3,13.6c7.9,0,14.2-6.2,14.2-13.6c0-7.5-6.4-13.6-14.2-13.6
	C380.2,364,373.8,370.1,373.8,377.6z"/>
<g>
	<path fill="#FFFFFF" d="M306.8,297.4"/>
</g>
<g>
	<g>
		<path fill="#FFFFFF" d="M258.6,309.7l-2.6-0.1l0.3-7.2c0,0-0.1,0-0.1,0c-1.3-0.3-2.3-0.5-3.3-0.7l-0.3,7.8l-2.6-0.1
			c-0.4,0-0.7,0-1.1,0c-2.6,0.4-4.7,2.6-4.8,5.1l-0.3,9.1l-0.3,0.2c-3.5,2.7-5.6,6.7-5.7,10.9c-0.2,3.8,1.3,7.6,4.2,10.6
			c2.9,3,6.8,4.7,10.8,4.7c8.5,0.5,15.9-6.5,16-14.2c0.2-4.3-1.6-8.4-4.9-11.3l-0.2-0.2l0.3-9.1
			C264.1,312.3,261.7,309.8,258.6,309.7z M265.5,335.7c-0.1,5.4-4.6,10.2-10.3,11c-0.7,0.1-1.5,0.1-2.3,0.1c-3.1,0-6.2-1.4-8.4-3.7
			c-2.2-2.3-3.4-5.3-3.2-8.2c0.2-5.4,4.6-10.2,10.3-11c0.7-0.1,1.5-0.1,2.2-0.1C260.5,324,265.7,329.4,265.5,335.7z M260.6,315.1
			l-0.2,7l-1-0.4c-1.7-0.7-3.6-1.1-5.5-1.1c-1.9-0.1-3.8,0.2-5.5,0.8l-1,0.3l0.3-7c0-1.1,1.1-2.1,2.3-2c2.3,0.1,6.3,0.2,8.6,0.3
			C259.7,313,260.7,313.9,260.6,315.1z"/>
	</g>
</g>
<g>
	<g>
		<path fill="#FFFFFF" d="M404.5,281l-2.2,0.2l-0.8-6c0,0-0.1,0-0.1,0c-1.1-0.1-2-0.1-2.8-0.2l0.8,6.5l-2.2,0.2
			c-0.3,0-0.6,0.1-0.9,0.2c-2.2,0.7-3.6,2.8-3.3,4.9l1,7.7l-0.2,0.2c-2.5,2.7-3.7,6.3-3.3,9.9c0.3,3.2,2.1,6.2,4.9,8.3
			c2.8,2.1,6.3,3.1,9.7,2.6c7.2-0.7,12.4-7.4,11.5-13.9c-0.5-3.6-2.5-6.8-5.7-8.9l-0.2-0.2l-1-7.7
			C409.5,282.4,407.1,280.7,404.5,281z M413.8,301.9c0.7,4.5-2.4,9.1-7.1,10.5c-0.6,0.2-1.2,0.3-1.9,0.4c-2.6,0.3-5.3-0.4-7.5-2
			c-2.2-1.6-3.6-4-3.8-6.5c-0.6-4.6,2.4-9.1,7.1-10.5c0.6-0.2,1.2-0.3,1.9-0.4C408,292.8,413.1,296.6,413.8,301.9z M406.9,285.3
			l0.8,5.9l-0.9-0.2c-1.6-0.4-3.1-0.4-4.7-0.3c-1.6,0.2-3.1,0.6-4.5,1.4l-0.8,0.4l-0.8-5.9c-0.1-0.9,0.6-1.9,1.7-2
			c1.9-0.2,5.3-0.6,7.2-0.8C405.8,283.6,406.8,284.3,406.9,285.3z"/>
	</g>
</g>
<g>
	<g>
		<path fill="#FFFFFF" d="M335.8,330.5c-1.2-0.2-2.2-0.9-2.5-2c-2.1-5.8-4.5-13.4-4.1-16.5c0.7-4.8,5.4-8.2,10.5-7.5
			c5.1,0.7,8.6,5.2,7.9,10c-0.5,3-5,9.7-8.7,14.7C338.1,330.2,336.9,330.7,335.8,330.5z M339.3,307c-3.6-0.5-7,1.9-7.5,5.4
			c-0.3,1.9,1.2,7.6,4,15.3c0.1,0.3,0.3,0.3,0.4,0.3c0.1,0,0.3,0,0.5-0.2c4.9-6.6,8-11.7,8.2-13.6
			C345.4,310.7,342.9,307.5,339.3,307z"/>
	</g>
	<g>
		<path fill="#FFFFFF" d="M338.6,311.3c-2.7-0.4-4.6-2.8-4.2-5.3l1.1-7.7l9.8,1.3l-1.1,7.7C343.8,309.8,341.3,311.6,338.6,311.3z
			 M337.8,301.1l-0.8,5.2c-0.2,1.2,0.7,2.3,2,2.5c1.3,0.2,2.4-0.7,2.6-1.9l0.8-5.2L337.8,301.1z"/>
	</g>
	<g>
		<polygon fill="#FFFFFF" points="341.6,300.3 339,300 340.5,289.4 343.1,289.8 		"/>
	</g>
</g>
<g>
	<g>
		<path fill="#FFFFFF" d="M198.1,326c-0.8-0.3-1.3-0.9-1.4-1.7c-0.5-4.2-1-9.7-0.2-11.6c1.2-3.2,4.9-4.8,8.2-3.6
			c3.3,1.2,5,4.7,3.7,7.9c-0.8,2-4.8,5.8-8.1,8.7C199.7,326.1,198.9,326.3,198.1,326z M204.1,310.7c-2.4-0.8-5,0.3-5.9,2.6
			c-0.5,1.3-0.4,5.3,0.3,10.8c0,0.2,0.2,0.3,0.2,0.3s0.2,0.1,0.4-0.1c4.3-3.8,7.2-6.7,7.6-8C207.6,314.1,206.4,311.6,204.1,310.7z"
			/>
	</g>
	<g>
		<path fill="#FFFFFF" d="M203,313.5c-1.8-0.6-2.6-2.5-2-4.2l2-5l6.4,2.3l-2,5C206.7,313.3,204.7,314.1,203,313.5z M204,306.5
			l-1.3,3.4c-0.3,0.8,0.1,1.7,0.9,2s1.7-0.1,2-0.9l1.3-3.4L204,306.5z"/>
	</g>
	<g>
		<polygon fill="#FFFFFF" points="206.7,306.5 205,305.9 207.6,299 209.3,299.7 		"/>
	</g>
</g>
<g>
	<path fill="#FFFFFF" d="M317.3,297.6c32.9-5.3,65.1-14.3,95.9-26.8L412,268c-30.6,12.5-62.6,21.4-95.3,26.7
		C317,295.6,317.2,296.6,317.3,297.6z"/>
	<path fill="#FFFFFF" d="M297.4,297.3c-1.1,0.1-2.1,0.3-3.2,0.4c-36.4,3.9-73.3,3.2-109.6-2l-0.5,2.9c20.9,3,42,4.5,63.1,4.5
		c15.8,0,31.5-0.8,47.2-2.5c1-0.1,2-0.2,2.9-0.3C297.3,299.3,297.3,298.3,297.4,297.3z"/>
</g>
<g>
	<path fill="#FFFFFF" d="M306.8,297.4c-0.1,0-0.3,0-0.4,0"/>
	<g>
		<path fill="#FFFFFF" d="M306.8,296.2c-0.1,0-0.3,0-0.4,0c-1.6,0-1.6,2.5,0,2.5c0.1,0,0.3,0,0.4,0
			C308.4,298.7,308.4,296.2,306.8,296.2L306.8,296.2z"/>
	</g>
</g>
</svg>
